<svg width="36" height="35" viewBox="0 0 36 35" fill="none" xmlns="http://www.w3.org/2000/svg">
<path d="M2.35973 25.2365L33.6403 25.2365C34.3912 25.2365 35 24.6502 35 23.9269V18.3607C35 17.6374 34.3912 17.0511 33.6403 17.0511L2.35973 17.0511C1.60877 17.0511 1 17.6374 1 18.3607V23.9269C1 24.6502 1.60877 25.2365 2.35973 25.2365Z" stroke="#7E7E7E" stroke-width="1.5" stroke-miterlimit="10" stroke-linecap="round"/>
<path d="M32.9313 17.0483L3.06486 17.0483V6.07979C3.06486 5.3562 3.67334 4.77011 4.42459 4.77011L31.4424 4.77011C32.265 4.77011 32.9313 5.41186 32.9313 6.20421V17.0483Z" stroke="#7E7E7E" stroke-width="1.5" stroke-miterlimit="10" stroke-linecap="round"/>
<path d="M32.9313 17.0483L3.06486 17.0483V6.07979C3.06486 5.3562 3.67334 4.77011 4.42459 4.77011L31.4424 4.77011C32.265 4.77011 32.9313 5.41186 32.9313 6.20421V17.0483Z" stroke="#7E7E7E" stroke-width="1.5" stroke-miterlimit="10" stroke-linecap="round"/>
<path d="M28.5788 17.0538L7.42486 17.0538V10.2042C7.42486 9.48062 8.03333 8.89454 8.78458 8.89454L27.0865 8.89454C27.9092 8.89454 28.5754 9.53629 28.5754 10.3286V17.0538H28.5788Z" stroke="#7E7E7E" stroke-width="1.5" stroke-miterlimit="10" stroke-linecap="round"/>
<path d="M30.6146 25.2514V29.3245" stroke="#7E7E7E" stroke-width="1.5" stroke-linejoin="round"/>
<path d="M5.22173 25.2514V29.3245" stroke="#7E7E7E" stroke-width="1.5" stroke-linejoin="round"/>
</svg>
