<svg width="16" height="20" viewBox="0 0 16 20" fill="none" xmlns="http://www.w3.org/2000/svg">
<path d="M1 8.06909C1 12.9903 5.30517 17.0599 7.21076 18.6202C7.48347 18.8435 7.62147 18.9565 7.82493 19.0138C7.98337 19.0584 8.21654 19.0584 8.37498 19.0138C8.57882 18.9564 8.71585 18.8445 8.9896 18.6204C10.8952 17.0601 15.2001 12.9907 15.2001 8.06954C15.2001 6.20717 14.4521 4.42086 13.1206 3.10396C11.7891 1.78707 9.98325 1.04724 8.10019 1.04724C6.21712 1.04724 4.4111 1.78718 3.07957 3.10407C1.74804 4.42097 1 6.20672 1 8.06909Z" stroke="#7E7E7E" stroke-width="1.5" stroke-linecap="round" stroke-linejoin="round"/>
<path d="M6.0715 7.13304C6.0715 8.25341 6.97974 9.16165 8.1001 9.16165C9.22047 9.16165 10.1287 8.25341 10.1287 7.13304C10.1287 6.01268 9.22047 5.10444 8.1001 5.10444C6.97974 5.10444 6.0715 6.01268 6.0715 7.13304Z" stroke="#7E7E7E" stroke-width="1.5" stroke-linecap="round" stroke-linejoin="round"/>
</svg>
