<svg width="390" height="86" viewBox="0 0 390 86" fill="none" xmlns="http://www.w3.org/2000/svg">
<path d="M256.361 43.5066H250.657C249.849 43.5066 249.204 44.1668 249.204 44.927V45.6894C249.204 46.5016 249.796 47.1619 250.657 47.1619H252.703C254.425 47.1619 256.091 45.7914 256.361 44.3189V43.5066ZM261.957 52.4918H257.383C257.005 52.4918 256.844 52.3897 256.844 52.0856C256.844 51.6795 256.736 51.4254 256.467 51.4254C256.306 51.4254 256.144 51.4753 255.983 51.5774C254.8 52.1877 253.723 52.4918 252.703 52.4918H250.657C246.407 52.4918 243.07 49.7508 243.07 45.6894V45.4352C243.07 41.2739 246.405 38.6328 250.657 38.6328H255.822C256.2 38.6328 256.361 38.4308 256.361 38.1246V37.5165C256.361 35.5357 254.639 34.0653 252.434 34.0653C251.142 34.0653 249.798 34.8276 248.507 36.9583C248.399 37.1603 248.237 37.2623 248.076 37.2623C247.862 37.2623 247.646 37.1103 247.432 37.0082L243.344 34.9775C243.129 34.8754 243.021 34.7755 243.021 34.6213C243.021 34.3672 243.613 33.3529 244.152 32.5906C245.873 30.1537 248.295 28.7333 252.438 28.7333C258.573 28.7333 262.5 32.3886 262.5 37.6685V51.9857C262.495 52.3397 262.334 52.4918 261.957 52.4918ZM233.224 38.1745C233.224 36.1438 231.558 34.5713 229.405 34.5713C227.2 34.5713 225.531 36.146 225.531 38.1745V43.5044C225.531 45.5851 227.2 47.1597 229.405 47.1597C231.558 47.1597 233.224 45.5851 233.224 43.5044V38.1745ZM238.876 52.4918H234.302C233.924 52.4918 233.763 52.3897 233.763 52.0357C233.763 51.6795 233.602 51.4775 233.333 51.4775C233.224 51.4775 233.118 51.5274 232.957 51.5796C231.827 52.1378 230.428 52.4939 229.405 52.4939C223.273 52.4939 219.344 48.7887 219.344 43.5088V38.1745C219.344 32.8946 223.593 29.2393 228.867 29.2393C229.944 29.2393 231.288 29.5955 232.419 30.1537C232.58 30.2058 232.633 30.2558 232.794 30.2558C233.063 30.2558 233.224 30.0516 233.224 29.6976V21.0165C233.224 20.6603 233.385 20.5082 233.763 20.5082H238.873C239.251 20.5082 239.412 20.6603 239.412 21.0165V51.9835C239.414 52.3397 239.251 52.4918 238.876 52.4918ZM206.053 34.0631C203.417 34.0631 202.234 36.348 202.234 37.0082C202.234 37.2623 202.45 37.4643 202.825 37.4643H209.229C209.604 37.4643 209.821 37.2623 209.821 37.0082C209.821 36.3979 208.744 34.0631 206.053 34.0631ZM215.523 42.3381H202.717C202.34 42.3381 202.179 42.4901 202.179 42.8442V44.0126C202.179 45.9934 203.847 47.668 206.053 47.668C207.452 47.668 208.905 46.8557 209.871 44.6729C209.98 44.4687 210.141 44.3688 210.302 44.3688C210.463 44.3688 210.788 44.5209 211.216 44.725L215.251 46.6037C215.467 46.7058 215.573 46.8578 215.573 47.0099C215.573 47.2119 215.196 47.8721 214.765 48.5324C213.096 51.1213 210.73 53 206.048 53C199.916 53 195.986 49.2947 195.986 44.0148V37.7184C195.986 33.5049 199.913 28.7333 206.048 28.7333C212.127 28.7333 216.057 33.5049 216.057 37.7184V41.8299C216.061 42.1861 215.9 42.3381 215.523 42.3381ZM192.388 35.0274L188.3 36.9062C188.086 37.0082 187.923 37.1103 187.709 37.1103C187.548 37.1103 187.386 37.0082 187.278 36.8062C186.47 34.8776 184.91 33.9133 183.351 33.9133H181.791C179.746 33.9133 178.833 34.6235 178.833 35.8419C178.833 37.7706 181.791 37.6685 184.698 38.2788C188.572 39.0411 192.607 40.3095 192.607 44.9292C192.607 49.2426 189.433 53 183.353 53H181.793C177.38 53 174.961 51.2234 173.453 48.9907C172.914 48.1784 172.484 47.3161 172.484 47.062C172.484 46.91 172.592 46.7579 172.806 46.6559L176.68 44.8792C177.003 44.7272 177.327 44.5752 177.488 44.5752C177.649 44.5752 177.811 44.6772 177.919 44.9314C178.727 46.86 180.232 47.8243 181.793 47.8243H183.353C185.398 47.8243 186.475 46.7579 186.475 45.6416C186.475 43.7129 183.515 43.865 180.557 43.3068C176.683 42.5966 172.756 41.326 172.756 36.6064C172.756 31.6306 176.952 28.7376 181.795 28.7376H183.356C187.66 28.7376 190.08 30.3622 191.587 32.495C192.126 33.2573 192.718 34.3737 192.718 34.6278C192.711 34.7733 192.603 34.9254 192.388 35.0274ZM168.444 52.4918H163.387C163.009 52.4918 162.848 52.3397 162.848 51.9835V29.7475C162.848 29.3913 163.009 29.2393 163.387 29.2393H168.444C168.822 29.2393 168.983 29.3913 168.983 29.7475V51.9835C168.983 52.3397 168.822 52.4918 168.444 52.4918ZM165.917 26.8024C163.978 26.8024 162.312 25.23 162.312 23.4012C162.312 21.5746 163.978 20 165.917 20C167.852 20 169.521 21.5746 169.521 23.4012C169.521 25.23 167.852 26.8024 165.917 26.8024ZM157.416 52.4918H152.358C151.981 52.4918 151.82 52.3397 151.82 51.9835V21.0165C151.82 20.6603 151.981 20.5082 152.358 20.5082H157.416C157.793 20.5082 157.954 20.6603 157.954 21.0165V51.9835C157.952 52.3397 157.791 52.4918 157.416 52.4918ZM140.842 43.5066H135.14C134.332 43.5066 133.688 44.1668 133.688 44.927V45.6894C133.688 46.5016 134.279 47.1619 135.14 47.1619H137.184C138.906 47.1619 140.575 45.7914 140.844 44.3189V43.5066H140.842ZM146.438 52.4918H141.866C141.489 52.4918 141.328 52.3897 141.328 52.0856C141.328 51.6795 141.219 51.4254 140.952 51.4254C140.791 51.4254 140.63 51.4753 140.467 51.5774C139.283 52.1877 138.208 52.4918 137.184 52.4918H135.14C130.888 52.4918 127.553 49.7508 127.553 45.6894V45.4352C127.553 41.2739 130.888 38.6328 135.14 38.6328H140.306C140.683 38.6328 140.844 38.4308 140.844 38.1246V37.5165C140.844 35.5357 139.122 34.0653 136.917 34.0653C135.626 34.0653 134.281 34.8276 132.99 36.9583C132.882 37.1603 132.721 37.2623 132.56 37.2623C132.346 37.2623 132.129 37.1103 131.913 37.0082L127.822 34.9775C127.608 34.8754 127.5 34.7755 127.5 34.6213C127.5 34.3672 128.092 33.3529 128.63 32.5906C130.352 30.1537 132.774 28.7333 136.917 28.7333C143.049 28.7333 146.979 32.3886 146.979 37.6685V51.9857C146.976 52.3397 146.815 52.4918 146.438 52.4918Z" fill="#DE0E48"/>
<path d="M237.505 61.8759C236.99 62.2226 236.177 62.2082 235.438 62.3445C234.716 62.4664 234.067 62.7366 234.067 63.6451C234.067 64.4149 235.026 64.642 235.616 64.642C236.354 64.642 237.505 64.2499 237.505 63.1597V61.8759ZM239.188 64.0515C239.188 64.4747 239.275 64.6396 239.586 64.6396C239.689 64.6396 239.823 64.6396 240 64.6086V65.8016C239.749 65.8924 239.217 65.9976 238.937 65.9976C238.258 65.9976 237.77 65.7561 237.636 65.0461C236.971 65.7107 235.894 65.9976 234.994 65.9976C233.62 65.9976 232.38 65.2421 232.38 63.7144C232.38 61.7659 233.901 61.4479 235.316 61.283C236.527 61.0559 237.604 61.1921 237.604 60.1808C237.604 59.2891 236.704 59.1217 236.023 59.1217C235.079 59.1217 234.414 59.5162 234.34 60.3625H232.656C232.773 58.3519 234.444 57.7637 236.126 57.7637C237.618 57.7637 239.183 58.383 239.183 60.0302V64.0515H239.188ZM228.175 57.9765H229.857V65.7872H228.175V57.9765ZM228.175 55H229.857V56.6329H228.175V55ZM221.825 57.9765H223.403V59.4875H223.433C223.624 58.6555 224.63 57.7661 225.664 57.7661C226.048 57.7661 226.152 57.7948 226.299 57.8116V59.4732C226.062 59.4421 225.811 59.399 225.574 59.399C224.423 59.399 223.507 60.3506 223.507 62.0743V65.792H221.825V57.9765ZM217.217 61.8759C216.699 62.2226 215.889 62.2082 215.15 62.3445C214.427 62.4664 213.778 62.7366 213.778 63.6451C213.778 64.4149 214.738 64.642 215.33 64.642C216.068 64.642 217.219 64.2499 217.219 63.1597V61.8759H217.217ZM218.899 64.0515C218.899 64.4747 218.987 64.6396 219.298 64.6396C219.401 64.6396 219.535 64.6396 219.712 64.6086V65.8016C219.461 65.8924 218.929 65.9976 218.648 65.9976C217.97 65.9976 217.482 65.7561 217.348 65.0461C216.683 65.7107 215.606 65.9976 214.706 65.9976C213.332 65.9976 212.091 65.2421 212.091 63.7144C212.091 61.7659 213.613 61.4479 215.028 61.283C216.239 61.0559 217.318 61.1921 217.318 60.1808C217.318 59.2891 216.418 59.1217 215.739 59.1217C214.796 59.1217 214.131 59.5162 214.057 60.3625H212.372C212.49 58.3519 214.16 57.7637 215.843 57.7637C217.334 57.7637 218.899 58.383 218.899 60.0302V64.0515ZM207.884 57.9765H209.569V65.7872H207.884V57.9765ZM207.884 55H209.569V56.6329H207.884V55ZM203.219 55H204.901V65.7896H203.219V55ZM198.551 57.9765H200.236V65.7872H198.551V57.9765ZM198.551 55H200.236V56.6329H198.551V55ZM192.185 59.1265C190.767 59.1265 190.045 60.2286 190.045 61.8926C190.045 63.4634 190.827 64.642 192.185 64.642C193.72 64.642 194.296 63.253 194.296 61.8926C194.298 60.4701 193.573 59.1265 192.185 59.1265ZM188.42 55H190.105V58.9902H190.135C190.593 58.2347 191.552 57.7661 192.408 57.7661C194.816 57.7661 195.98 59.6405 195.98 61.9213C195.98 64.0204 194.947 66 192.689 66C191.656 66 190.549 65.7442 190.047 64.7161H190.017V65.7896H188.422V55H188.42ZM184.183 61.8759C184.183 60.5299 183.518 59.1241 182.012 59.1241C180.507 59.1241 179.842 60.5299 179.842 61.8759C179.842 63.2339 180.507 64.6396 182.012 64.6396C183.518 64.642 184.183 63.2363 184.183 61.8759ZM178.16 61.8759C178.16 59.4875 179.563 57.7661 182.012 57.7661C184.463 57.7661 185.865 59.4875 185.865 61.8759C185.865 64.2786 184.461 66 182.012 66C179.561 66.0024 178.16 64.2786 178.16 61.8759ZM164.56 57.9765H166.155V59.0643H166.201C166.702 58.2945 167.338 57.7661 168.548 57.7661C169.478 57.7661 170.35 58.1726 170.689 59.0643C171.25 58.2634 171.973 57.7661 173.08 57.7661C174.691 57.7661 175.635 58.4905 175.635 60.3936V65.7872H173.952V61.2232C173.952 59.9848 173.879 59.1217 172.564 59.1217C171.427 59.1217 170.94 59.8915 170.94 61.2065V65.7848H169.257V60.769C169.257 59.6955 168.933 59.1217 167.913 59.1217C167.041 59.1217 166.244 59.8461 166.244 61.1467V65.7848H164.562V57.9765H164.56ZM154.976 57.9765H156.571V59.1241L156.601 59.1552C157.103 58.2945 157.973 57.7661 158.978 57.7661C160.633 57.7661 161.68 58.6722 161.68 60.4247V65.7896H159.998V60.8789C159.968 59.6549 159.496 59.1265 158.507 59.1265C157.386 59.1265 156.661 60.0326 156.661 61.1826V65.792H154.978V57.9765H154.976ZM150 55H151.846V65.7896H150V55Z" fill="#1A1A1A"/>
</svg>
