<svg width="1440" height="96" viewBox="0 0 1440 96" fill="none" xmlns="http://www.w3.org/2000/svg">
<path d="M781.361 48.5066H775.657C774.849 48.5066 774.204 49.1668 774.204 49.927V50.6894C774.204 51.5016 774.796 52.1619 775.657 52.1619H777.703C779.425 52.1619 781.091 50.7914 781.361 49.3189V48.5066ZM786.957 57.4918H782.383C782.005 57.4918 781.844 57.3897 781.844 57.0856C781.844 56.6795 781.736 56.4254 781.467 56.4254C781.306 56.4254 781.144 56.4753 780.983 56.5774C779.8 57.1877 778.723 57.4918 777.703 57.4918H775.657C771.407 57.4918 768.07 54.7508 768.07 50.6894V50.4352C768.07 46.2739 771.405 43.6328 775.657 43.6328H780.822C781.2 43.6328 781.361 43.4308 781.361 43.1246V42.5165C781.361 40.5357 779.639 39.0653 777.434 39.0653C776.142 39.0653 774.798 39.8276 773.507 41.9583C773.399 42.1603 773.237 42.2623 773.076 42.2623C772.862 42.2623 772.646 42.1103 772.432 42.0082L768.344 39.9775C768.129 39.8754 768.021 39.7755 768.021 39.6213C768.021 39.3672 768.613 38.3529 769.152 37.5906C770.873 35.1537 773.295 33.7333 777.438 33.7333C783.573 33.7333 787.5 37.3886 787.5 42.6685V56.9857C787.495 57.3397 787.334 57.4918 786.957 57.4918ZM758.224 43.1745C758.224 41.1438 756.558 39.5713 754.405 39.5713C752.2 39.5713 750.531 41.146 750.531 43.1745V48.5044C750.531 50.5851 752.2 52.1597 754.405 52.1597C756.558 52.1597 758.224 50.5851 758.224 48.5044V43.1745ZM763.876 57.4918H759.302C758.924 57.4918 758.763 57.3897 758.763 57.0357C758.763 56.6795 758.602 56.4775 758.333 56.4775C758.224 56.4775 758.118 56.5274 757.957 56.5796C756.827 57.1378 755.428 57.4939 754.405 57.4939C748.273 57.4939 744.344 53.7887 744.344 48.5088V43.1745C744.344 37.8946 748.593 34.2393 753.867 34.2393C754.944 34.2393 756.288 34.5955 757.419 35.1537C757.58 35.2058 757.633 35.2558 757.794 35.2558C758.063 35.2558 758.224 35.0516 758.224 34.6976V26.0165C758.224 25.6603 758.385 25.5082 758.763 25.5082H763.873C764.251 25.5082 764.412 25.6603 764.412 26.0165V56.9835C764.414 57.3397 764.251 57.4918 763.876 57.4918ZM731.053 39.0631C728.417 39.0631 727.234 41.348 727.234 42.0082C727.234 42.2623 727.45 42.4643 727.825 42.4643H734.229C734.604 42.4643 734.821 42.2623 734.821 42.0082C734.821 41.3979 733.744 39.0631 731.053 39.0631ZM740.523 47.3381H727.717C727.34 47.3381 727.179 47.4901 727.179 47.8442V49.0126C727.179 50.9934 728.847 52.668 731.053 52.668C732.452 52.668 733.905 51.8557 734.871 49.6729C734.98 49.4687 735.141 49.3688 735.302 49.3688C735.463 49.3688 735.788 49.5209 736.216 49.725L740.251 51.6037C740.467 51.7058 740.573 51.8578 740.573 52.0099C740.573 52.2119 740.196 52.8721 739.765 53.5324C738.096 56.1213 735.73 58 731.048 58C724.916 58 720.986 54.2947 720.986 49.0148V42.7184C720.986 38.5049 724.913 33.7333 731.048 33.7333C737.127 33.7333 741.057 38.5049 741.057 42.7184V46.8299C741.061 47.1861 740.9 47.3381 740.523 47.3381ZM717.388 40.0274L713.3 41.9062C713.086 42.0082 712.923 42.1103 712.709 42.1103C712.548 42.1103 712.386 42.0082 712.278 41.8062C711.47 39.8776 709.91 38.9133 708.351 38.9133H706.791C704.746 38.9133 703.833 39.6235 703.833 40.8419C703.833 42.7706 706.791 42.6685 709.698 43.2788C713.572 44.0411 717.607 45.3095 717.607 49.9292C717.607 54.2426 714.433 58 708.353 58H706.793C702.38 58 699.961 56.2234 698.453 53.9907C697.914 53.1784 697.484 52.3161 697.484 52.062C697.484 51.91 697.592 51.7579 697.806 51.6559L701.68 49.8792C702.003 49.7272 702.327 49.5752 702.488 49.5752C702.649 49.5752 702.811 49.6772 702.919 49.9314C703.727 51.86 705.232 52.8243 706.793 52.8243H708.353C710.398 52.8243 711.475 51.7579 711.475 50.6416C711.475 48.7129 708.515 48.865 705.557 48.3068C701.683 47.5966 697.756 46.326 697.756 41.6064C697.756 36.6306 701.952 33.7376 706.795 33.7376H708.356C712.66 33.7376 715.08 35.3622 716.587 37.495C717.126 38.2573 717.718 39.3737 717.718 39.6278C717.711 39.7733 717.603 39.9254 717.388 40.0274ZM693.444 57.4918H688.387C688.009 57.4918 687.848 57.3397 687.848 56.9835V34.7475C687.848 34.3913 688.009 34.2393 688.387 34.2393H693.444C693.822 34.2393 693.983 34.3913 693.983 34.7475V56.9835C693.983 57.3397 693.822 57.4918 693.444 57.4918ZM690.917 31.8024C688.978 31.8024 687.312 30.23 687.312 28.4012C687.312 26.5746 688.978 25 690.917 25C692.852 25 694.521 26.5746 694.521 28.4012C694.521 30.23 692.852 31.8024 690.917 31.8024ZM682.416 57.4918H677.358C676.981 57.4918 676.82 57.3397 676.82 56.9835V26.0165C676.82 25.6603 676.981 25.5082 677.358 25.5082H682.416C682.793 25.5082 682.954 25.6603 682.954 26.0165V56.9835C682.952 57.3397 682.791 57.4918 682.416 57.4918ZM665.842 48.5066H660.14C659.332 48.5066 658.688 49.1668 658.688 49.927V50.6894C658.688 51.5016 659.279 52.1619 660.14 52.1619H662.184C663.906 52.1619 665.575 50.7914 665.844 49.3189V48.5066H665.842ZM671.438 57.4918H666.866C666.489 57.4918 666.328 57.3897 666.328 57.0856C666.328 56.6795 666.219 56.4254 665.952 56.4254C665.791 56.4254 665.63 56.4753 665.467 56.5774C664.283 57.1877 663.208 57.4918 662.184 57.4918H660.14C655.888 57.4918 652.553 54.7508 652.553 50.6894V50.4352C652.553 46.2739 655.888 43.6328 660.14 43.6328H665.306C665.683 43.6328 665.844 43.4308 665.844 43.1246V42.5165C665.844 40.5357 664.122 39.0653 661.917 39.0653C660.626 39.0653 659.281 39.8276 657.99 41.9583C657.882 42.1603 657.721 42.2623 657.56 42.2623C657.346 42.2623 657.129 42.1103 656.913 42.0082L652.822 39.9775C652.608 39.8754 652.5 39.7755 652.5 39.6213C652.5 39.3672 653.092 38.3529 653.63 37.5906C655.352 35.1537 657.774 33.7333 661.917 33.7333C668.049 33.7333 671.979 37.3886 671.979 42.6685V56.9857C671.976 57.3397 671.815 57.4918 671.438 57.4918Z" fill="#DE0E48"/>
<path d="M762.505 66.8759C761.99 67.2226 761.177 67.2082 760.438 67.3445C759.716 67.4664 759.067 67.7366 759.067 68.6451C759.067 69.4149 760.026 69.642 760.616 69.642C761.354 69.642 762.505 69.2499 762.505 68.1597V66.8759ZM764.188 69.0515C764.188 69.4747 764.275 69.6396 764.586 69.6396C764.689 69.6396 764.823 69.6396 765 69.6086V70.8016C764.749 70.8924 764.217 70.9976 763.937 70.9976C763.258 70.9976 762.77 70.7561 762.636 70.0461C761.971 70.7107 760.894 70.9976 759.994 70.9976C758.62 70.9976 757.38 70.2421 757.38 68.7144C757.38 66.7659 758.901 66.4479 760.316 66.283C761.527 66.0559 762.604 66.1921 762.604 65.1808C762.604 64.2891 761.704 64.1217 761.023 64.1217C760.079 64.1217 759.414 64.5162 759.34 65.3625H757.656C757.773 63.3519 759.444 62.7637 761.126 62.7637C762.618 62.7637 764.183 63.383 764.183 65.0302V69.0515H764.188ZM753.175 62.9765H754.857V70.7872H753.175V62.9765ZM753.175 60H754.857V61.6329H753.175V60ZM746.825 62.9765H748.403V64.4875H748.433C748.624 63.6555 749.63 62.7661 750.664 62.7661C751.048 62.7661 751.152 62.7948 751.299 62.8116V64.4732C751.062 64.4421 750.811 64.399 750.574 64.399C749.423 64.399 748.507 65.3506 748.507 67.0743V70.792H746.825V62.9765ZM742.217 66.8759C741.699 67.2226 740.889 67.2082 740.15 67.3445C739.427 67.4664 738.778 67.7366 738.778 68.6451C738.778 69.4149 739.738 69.642 740.33 69.642C741.068 69.642 742.219 69.2499 742.219 68.1597V66.8759H742.217ZM743.899 69.0515C743.899 69.4747 743.987 69.6396 744.298 69.6396C744.401 69.6396 744.535 69.6396 744.712 69.6086V70.8016C744.461 70.8924 743.929 70.9976 743.648 70.9976C742.97 70.9976 742.482 70.7561 742.348 70.0461C741.683 70.7107 740.606 70.9976 739.706 70.9976C738.332 70.9976 737.091 70.2421 737.091 68.7144C737.091 66.7659 738.613 66.4479 740.028 66.283C741.239 66.0559 742.318 66.1921 742.318 65.1808C742.318 64.2891 741.418 64.1217 740.739 64.1217C739.796 64.1217 739.131 64.5162 739.057 65.3625H737.372C737.49 63.3519 739.16 62.7637 740.843 62.7637C742.334 62.7637 743.899 63.383 743.899 65.0302V69.0515ZM732.884 62.9765H734.569V70.7872H732.884V62.9765ZM732.884 60H734.569V61.6329H732.884V60ZM728.219 60H729.901V70.7896H728.219V60ZM723.551 62.9765H725.236V70.7872H723.551V62.9765ZM723.551 60H725.236V61.6329H723.551V60ZM717.185 64.1265C715.767 64.1265 715.045 65.2286 715.045 66.8926C715.045 68.4634 715.827 69.642 717.185 69.642C718.72 69.642 719.296 68.253 719.296 66.8926C719.298 65.4701 718.573 64.1265 717.185 64.1265ZM713.42 60H715.105V63.9902H715.135C715.593 63.2347 716.552 62.7661 717.408 62.7661C719.816 62.7661 720.98 64.6405 720.98 66.9213C720.98 69.0204 719.947 71 717.689 71C716.656 71 715.549 70.7442 715.047 69.7161H715.017V70.7896H713.422V60H713.42ZM709.183 66.8759C709.183 65.5299 708.518 64.1241 707.012 64.1241C705.507 64.1241 704.842 65.5299 704.842 66.8759C704.842 68.2339 705.507 69.6396 707.012 69.6396C708.518 69.642 709.183 68.2363 709.183 66.8759ZM703.16 66.8759C703.16 64.4875 704.563 62.7661 707.012 62.7661C709.463 62.7661 710.865 64.4875 710.865 66.8759C710.865 69.2786 709.461 71 707.012 71C704.561 71.0024 703.16 69.2786 703.16 66.8759ZM689.56 62.9765H691.155V64.0643H691.201C691.702 63.2945 692.338 62.7661 693.548 62.7661C694.478 62.7661 695.35 63.1726 695.689 64.0643C696.25 63.2634 696.973 62.7661 698.08 62.7661C699.691 62.7661 700.635 63.4905 700.635 65.3936V70.7872H698.952V66.2232C698.952 64.9848 698.879 64.1217 697.564 64.1217C696.427 64.1217 695.94 64.8915 695.94 66.2065V70.7848H694.257V65.769C694.257 64.6955 693.933 64.1217 692.913 64.1217C692.041 64.1217 691.244 64.8461 691.244 66.1467V70.7848H689.562V62.9765H689.56ZM679.976 62.9765H681.571V64.1241L681.601 64.1552C682.103 63.2945 682.973 62.7661 683.978 62.7661C685.633 62.7661 686.68 63.6722 686.68 65.4247V70.7896H684.998V65.8789C684.968 64.6549 684.496 64.1265 683.507 64.1265C682.386 64.1265 681.661 65.0326 681.661 66.1826V70.792H679.978V62.9765H679.976ZM675 60H676.846V70.7896H675V60Z" fill="#1A1A1A"/>
</svg>
