<svg width="21" height="18" viewBox="0 0 21 18" fill="none" xmlns="http://www.w3.org/2000/svg">
<path d="M7.98898 4.5H4.7002C3.58009 4.5 3.01962 4.5 2.5918 4.71799C2.21547 4.90973 1.90973 5.21547 1.71799 5.5918C1.5 6.01962 1.5 6.58009 1.5 7.7002V13.3002C1.5 14.4203 1.5 14.9796 1.71799 15.4074C1.90973 15.7837 2.21547 16.0905 2.5918 16.2822C3.0192 16.5 3.57899 16.5 4.69691 16.5H16.3031C17.421 16.5 17.98 16.5 18.4074 16.2822C18.7837 16.0905 19.0905 15.7837 19.2822 15.4074C19.5 14.98 19.5 14.421 19.5 13.3031V7.69691C19.5 6.57899 19.5 6.0192 19.2822 5.5918C19.0905 5.21547 18.7837 4.90973 18.4074 4.71799C17.9796 4.5 17.4203 4.5 16.3002 4.5H13.0108M7.98898 4.5H8.05078M7.98898 4.5C8.00151 4.50001 8.01468 4.5 8.02857 4.5L8.05078 4.5M7.98898 4.5C7.88286 4.49995 7.82339 4.49941 7.77637 4.49414C7.18878 4.42835 6.78578 3.86908 6.90918 3.29084C6.92066 3.23703 6.94336 3.16894 6.9883 3.03412L6.99023 3.02841C7.04156 2.87443 7.06723 2.79743 7.09558 2.72949C7.38586 2.03389 8.04322 1.56083 8.79492 1.50541C8.86834 1.5 8.94901 1.5 9.11133 1.5H11.8886C12.0509 1.5 12.1322 1.5 12.2057 1.50541C12.9574 1.56083 13.614 2.03389 13.9043 2.72949C13.9326 2.79743 13.9584 2.87434 14.0098 3.02832C14.056 3.16699 14.0791 3.23636 14.0908 3.29093C14.2142 3.86917 13.8118 4.42835 13.2242 4.49414C13.1772 4.49941 13.1171 4.49995 13.0108 4.5M8.05078 4.5H12.949M12.949 4.5H13.0108M12.949 4.5L12.9712 4.5C12.9851 4.5 12.9983 4.50001 13.0108 4.5M10.5 13.5C8.84315 13.5 7.5 12.1569 7.5 10.5C7.5 8.84315 8.84315 7.5 10.5 7.5C12.1569 7.5 13.5 8.84315 13.5 10.5C13.5 12.1569 12.1569 13.5 10.5 13.5Z" stroke="#333333" stroke-width="1.5" stroke-linecap="round" stroke-linejoin="round"/>
</svg>
